<svg width="32" height="32" viewBox="0 0 32 32" fill="none" xmlns="http://www.w3.org/2000/svg">
<g clip-path="url(#clip0_56_128)">
<circle cx="16" cy="16" r="16" fill="#1C2229"/>
<path d="M30 16.0258C30 16.0174 30 16.0087 30 16.0003C30 15.9723 30 15.9447 29.9997 15.9168L29.2406 15.9211C29.2408 15.9474 29.2408 15.9737 29.2408 16.0003C29.2408 16.0084 29.2408 16.0163 29.2408 16.0244L30 16.0258ZM29.9789 16.777C29.9805 16.7494 29.9818 16.7214 29.9832 16.6935L29.2248 16.6566C29.2235 16.6829 29.2221 16.7092 29.2208 16.7355L29.9789 16.777ZM29.9178 17.5258C29.9208 17.4982 29.9238 17.4705 29.9265 17.4429L29.1714 17.3656C29.1687 17.3919 29.166 17.4179 29.163 17.4442L29.9178 17.5258ZM29.8167 18.2706C29.8213 18.2432 29.8257 18.2155 29.83 18.1882L29.0801 18.0705C29.076 18.0965 29.0719 18.1225 29.0676 18.1486L29.8167 18.2706ZM29.676 19.0088C29.682 18.9817 29.6879 18.9543 29.6936 18.9272L28.951 18.7691C28.9456 18.7949 28.9399 18.8207 28.9345 18.8464L29.676 19.0088ZM29.4952 19.7386C29.5025 19.7118 29.5098 19.685 29.5171 19.6581L28.7842 19.4602C28.7775 19.4857 28.7704 19.5109 28.7634 19.5364L29.4952 19.7386ZM29.2755 20.4576C29.2845 20.4313 29.2932 20.4048 29.3018 20.3785L28.5806 20.1413C28.5725 20.1662 28.5641 20.1911 28.5557 20.2161L29.2755 20.4576ZM29.0172 21.1636C29.0275 21.1379 29.0375 21.1118 29.0478 21.0858L28.3404 20.8098C28.3309 20.8345 28.3212 20.8589 28.3114 20.8833L29.0172 21.1636ZM28.7216 21.8528C28.7333 21.8276 28.7447 21.8024 28.7563 21.7771L28.0649 21.4635C28.0541 21.4873 28.0432 21.5112 28.0321 21.535L28.7216 21.8528ZM28.3895 22.5254C28.4025 22.5007 28.4152 22.4763 28.4283 22.4517L27.7548 22.1014C27.7426 22.1247 27.7304 22.148 27.7182 22.1711L28.3895 22.5254ZM28.0216 23.1796C28.0359 23.1558 28.05 23.1319 28.0641 23.108L27.4104 22.7222C27.3971 22.7447 27.3836 22.7675 27.37 22.79L28.0216 23.1796ZM27.6189 23.8132C27.6344 23.7902 27.6498 23.7671 27.6653 23.7438L27.0333 23.3233C27.0186 23.3453 27.004 23.367 26.9894 23.3889L27.6189 23.8132ZM27.1827 24.4246C27.1995 24.4023 27.216 24.3801 27.2328 24.3579L26.6241 23.9043C26.6084 23.9254 26.5927 23.9463 26.5767 23.9675L27.1827 24.4246ZM26.7144 25.0118C26.7323 24.9906 26.7502 24.9692 26.7681 24.9478L26.1844 24.4622C26.1676 24.4826 26.1507 24.5026 26.1337 24.5227L26.7144 25.0118ZM26.2156 25.5735C26.2345 25.5532 26.2535 25.5329 26.2725 25.5125L25.7156 24.9966C25.6977 25.0159 25.6798 25.0351 25.6616 25.0544L26.2156 25.5735ZM25.6871 26.1079C25.7072 26.0887 25.7272 26.0694 25.7473 26.0499L25.2186 25.5049C25.1996 25.5234 25.1806 25.5415 25.1617 25.5597L25.6871 26.1079ZM25.1308 26.6135C25.1519 26.5954 25.1728 26.5772 25.1939 26.5588L24.695 25.9864C24.6753 26.0038 24.6552 26.0209 24.6354 26.0382L25.1308 26.6135ZM24.5481 27.0888C24.5701 27.0717 24.5923 27.0546 24.614 27.0375L24.1465 26.4395C24.1257 26.4557 24.1051 26.4717 24.0842 26.488L24.5481 27.0888ZM23.9405 27.5323C23.9635 27.5166 23.9863 27.5006 24.0091 27.4846L23.5742 26.8624C23.5525 26.8776 23.5308 26.8925 23.5091 26.9074L23.9405 27.5323ZM23.3098 27.9428C23.3337 27.9282 23.3573 27.9135 23.3811 27.8989L22.9801 27.2542C22.9576 27.268 22.9354 27.2818 22.9129 27.2956L23.3098 27.9428ZM22.658 28.3188C22.6827 28.3055 22.7071 28.2923 22.7315 28.2787L22.366 27.6134C22.343 27.6261 22.3197 27.6386 22.2966 27.6513L22.658 28.3188ZM21.9864 28.6596C22.0117 28.6477 22.0369 28.6355 22.0621 28.6236L21.7329 27.9395C21.7091 27.9509 21.6852 27.9623 21.6614 27.9737L21.9864 28.6596ZM21.297 28.9635C21.3227 28.953 21.3487 28.9424 21.3745 28.9315L21.0828 28.2307C21.0584 28.2407 21.034 28.2511 21.0096 28.2611L21.297 28.9635ZM20.592 29.23C20.6183 29.2208 20.6449 29.2116 20.6712 29.2024L20.4179 28.4866C20.393 28.4956 20.3681 28.5043 20.3431 28.5129L20.592 29.23ZM19.8754 29.4572C19.9023 29.4496 19.9288 29.4418 19.9557 29.4339L19.7415 28.7057C19.7163 28.713 19.691 28.7203 19.6656 28.7277L19.8754 29.4572ZM19.1474 29.6454C19.1745 29.6391 19.2017 29.6329 19.2288 29.6264L19.0542 28.8876C19.0284 28.8936 19.0029 28.8996 18.9772 28.9055L19.1474 29.6454ZM18.4105 29.794C18.4379 29.7891 18.4653 29.7845 18.4929 29.7793L18.3584 29.0321C18.3324 29.0367 18.3066 29.0413 18.2806 29.046L18.4105 29.794ZM17.6665 29.9027C17.6942 29.8994 17.7218 29.8959 17.7495 29.8926L17.6554 29.1395C17.6294 29.1427 17.6031 29.146 17.577 29.149L17.6665 29.9027ZM16.9182 29.9713C16.9461 29.9694 16.9738 29.9675 17.0014 29.9656L16.9477 29.2084C16.9214 29.2102 16.8951 29.2119 16.8688 29.2138L16.9182 29.9713ZM16.1674 30C16.1954 29.9997 16.223 29.9992 16.2509 29.9986L16.2374 29.2395C16.2111 29.2401 16.1848 29.2403 16.1582 29.2406L16.1674 30ZM15.4164 29.9892C15.444 29.9902 15.4717 29.9913 15.4996 29.9924L15.5262 29.2338C15.4999 29.233 15.4736 29.2319 15.4476 29.2309L15.4164 29.9892ZM14.6667 29.9385C14.6944 29.9412 14.722 29.9436 14.7499 29.946L14.8169 29.1899C14.7906 29.1875 14.7643 29.1853 14.7383 29.1826L14.6667 29.9385ZM13.9206 29.8479C13.9482 29.852 13.9756 29.856 14.0033 29.8598L14.1106 29.1083C14.0846 29.1045 14.0586 29.1007 14.0325 29.0969L13.9206 29.8479ZM13.1801 29.7172C13.2075 29.7229 13.2346 29.7283 13.262 29.7338L13.4095 28.989C13.3837 28.9839 13.3577 28.9787 13.3319 28.9736L13.1801 29.7172ZM12.448 29.547C12.4749 29.554 12.502 29.5611 12.5288 29.5678L12.7165 28.8323C12.691 28.8258 12.6655 28.8193 12.64 28.8125L12.448 29.547ZM11.726 29.3371C11.7526 29.3455 11.7792 29.3539 11.8057 29.3623L12.0327 28.6379C12.0075 28.6301 11.9825 28.6222 11.9573 28.6141L11.726 29.3371ZM11.0165 29.0888C11.0425 29.0988 11.0685 29.1086 11.0946 29.1183L11.3605 28.4072C11.3359 28.398 11.3112 28.3888 11.2865 28.3793L11.0165 29.0888ZM10.3232 28.803C10.3484 28.8142 10.3739 28.8255 10.3994 28.8367L10.7033 28.141C10.6792 28.1304 10.6553 28.1198 10.6312 28.1093L10.3232 28.803ZM9.6459 28.4804C9.67058 28.4929 9.69525 28.5056 9.72019 28.5181L10.061 27.8398C10.0374 27.8281 10.0141 27.8162 9.99078 27.8043L9.6459 28.4804ZM8.98678 28.1215C9.01091 28.1353 9.03477 28.1491 9.0589 28.1629L9.43578 27.5039C9.413 27.4909 9.39023 27.4778 9.36745 27.4646L8.98678 28.1215ZM8.34745 27.7278C8.37077 27.743 8.39409 27.7582 8.41741 27.7731L8.82898 27.1351C8.80702 27.1208 8.78479 27.1067 8.76283 27.0923L8.34745 27.7278ZM7.73036 27.3003C7.75286 27.3168 7.77537 27.3331 7.79787 27.3493L8.24307 26.7344C8.22165 26.719 8.2005 26.7035 8.17935 26.6881L7.73036 27.3003ZM7.13658 26.8404C7.158 26.8581 7.17969 26.8757 7.20138 26.893L7.67857 26.3028C7.65824 26.2863 7.63763 26.2698 7.6173 26.2529L7.13658 26.8404ZM6.56802 26.3492C6.58863 26.3679 6.60923 26.3866 6.62984 26.4053L7.13794 25.8414C7.11842 25.8238 7.0989 25.8062 7.07937 25.7883L6.56802 26.3492ZM6.0263 25.8284C6.04582 25.8482 6.06534 25.868 6.08514 25.8878L6.62252 25.3518C6.60381 25.3331 6.58537 25.3144 6.56694 25.2956L6.0263 25.8284ZM5.51305 25.2791C5.53149 25.3 5.54992 25.3209 5.56863 25.3415L6.13394 24.8348C6.11632 24.8152 6.09869 24.7954 6.08134 24.7757L5.51305 25.2791ZM5.02989 24.7033C5.04724 24.725 5.0646 24.7469 5.08195 24.7686L5.67356 24.2928C5.65702 24.2722 5.64048 24.2516 5.62421 24.231L5.02989 24.7033ZM4.57792 24.1019C4.59418 24.1247 4.61018 24.1472 4.62645 24.17L5.24273 23.7264C5.22728 23.705 5.21209 23.6836 5.19664 23.6622L4.57792 24.1019ZM4.15848 23.4773C4.17339 23.5009 4.1883 23.5245 4.20348 23.5478L4.84254 23.1381C4.82817 23.1159 4.81407 23.0937 4.79997 23.0714L4.15848 23.4773ZM3.7732 22.8307C3.78676 22.8551 3.80058 22.8792 3.81441 22.9036L4.47462 22.5287C4.4616 22.5056 4.44859 22.4829 4.43584 22.4598L3.7732 22.8307ZM3.42317 22.1643C3.43537 22.1892 3.44784 22.2145 3.46031 22.2394L4.13977 21.9008C4.12811 21.8772 4.11618 21.8536 4.10452 21.8297L3.42317 22.1643ZM3.10974 21.4795C3.12059 21.5052 3.1317 21.531 3.14282 21.5565L3.83963 21.255C3.82905 21.2309 3.81875 21.2065 3.80845 21.1821L3.10974 21.4795ZM2.83346 20.7784C2.84295 20.8047 2.85271 20.831 2.8622 20.8573L3.57419 20.594C3.56497 20.5693 3.55602 20.5444 3.5468 20.5195L2.83346 20.7784ZM2.5954 20.0629C2.60354 20.0897 2.61167 20.1166 2.62008 20.1431L3.34535 19.9187C3.33749 19.8935 3.3299 19.8682 3.32204 19.8428L2.5954 20.0629ZM2.39721 19.3377C2.40371 19.3648 2.41049 19.3919 2.41727 19.4187L3.15366 19.2338C3.14716 19.2083 3.14092 19.1829 3.13468 19.1571L2.39721 19.3377ZM2.23832 18.603C2.24348 18.6303 2.24863 18.6577 2.25405 18.6851L2.99939 18.5403C2.99424 18.5146 2.98936 18.4885 2.98448 18.4628L2.23832 18.603ZM2.1193 17.8606C2.12309 17.8883 2.12662 17.916 2.13041 17.9433L2.88226 17.839C2.87874 17.8129 2.87521 17.7869 2.87169 17.7606L2.1193 17.8606ZM2.0404 17.1135C2.04257 17.1411 2.04474 17.169 2.04718 17.1967L2.80363 17.1327C2.80146 17.1064 2.7993 17.0801 2.79713 17.0538L2.0404 17.1135ZM2.00136 16.363C2.00217 16.3909 2.00298 16.4186 2.0038 16.4465L2.76269 16.4227C2.76188 16.3964 2.76107 16.3701 2.76052 16.3438L2.00136 16.363ZM2.0019 15.6118C2.00108 15.6394 2.00054 15.6673 2 15.695L2.7589 15.7113C2.75944 15.685 2.75998 15.6587 2.76079 15.6324L2.0019 15.6118ZM2.0423 14.8616C2.04013 14.8893 2.03796 14.9172 2.03579 14.9448L2.79279 15.0012C2.79469 14.9749 2.79685 14.9486 2.79902 14.9223L2.0423 14.8616ZM2.12282 14.1144C2.11903 14.1421 2.1155 14.1697 2.11198 14.1971L2.86491 14.2939C2.86816 14.2679 2.87169 14.2416 2.87521 14.2155L2.12282 14.1144ZM2.24293 13.3724C2.23778 13.3998 2.23263 13.4271 2.22748 13.4545L2.97417 13.5917C2.97906 13.5657 2.98366 13.5399 2.98882 13.5142L2.24293 13.3724ZM2.40317 12.6379C2.39639 12.665 2.38989 12.6919 2.38338 12.719L3.12167 12.8963C3.12791 12.8708 3.13414 12.8451 3.14038 12.8196L2.40317 12.6379ZM2.60272 11.9132C2.59459 11.9398 2.58646 11.9667 2.57859 11.9932L3.30604 12.2101C3.31363 12.1849 3.32122 12.1597 3.32881 12.1345L2.60272 11.9132ZM2.84132 11.2002C2.83183 11.2262 2.82234 11.2525 2.81285 11.2788L3.52755 11.5348C3.5365 11.5101 3.54545 11.4852 3.5544 11.4605L2.84132 11.2002ZM3.11733 10.5032C3.10649 10.5287 3.09564 10.5542 3.0848 10.5796L3.78459 10.8738C3.79462 10.8497 3.80492 10.8255 3.81522 10.8014L3.11733 10.5032ZM3.43049 9.82161C3.41829 9.84655 3.40609 9.87149 3.39389 9.89644L4.07687 10.2277C4.08825 10.2041 4.09991 10.1806 4.11157 10.157L3.43049 9.82161ZM3.78025 9.15765C3.76669 9.18178 3.75314 9.20618 3.73958 9.23031L4.40385 9.59794C4.41659 9.57489 4.42934 9.55212 4.44208 9.52908L3.78025 9.15765ZM4.16498 8.51322C4.15007 8.5368 4.13543 8.56012 4.12052 8.58371L4.76418 8.98631C4.77801 8.96408 4.79211 8.94185 4.80621 8.91961L4.16498 8.51322ZM4.58388 7.88993C4.56788 7.9127 4.55162 7.9352 4.53562 7.95798L5.15678 8.39447C5.17197 8.37305 5.18715 8.35136 5.20233 8.32994L4.58388 7.88993ZM5.03559 7.28996C5.01823 7.31164 5.00115 7.3336 4.9838 7.35529L5.58056 7.82432C5.59683 7.80371 5.6131 7.78311 5.62963 7.76251L5.03559 7.28996ZM5.51874 6.71492C5.50031 6.7358 5.48187 6.75668 5.46343 6.77755L6.03443 7.27776C6.05179 7.25796 6.06914 7.23817 6.08676 7.21865L5.51874 6.71492ZM6.03226 6.16619C6.01274 6.18598 5.99322 6.20577 5.9737 6.22584L6.51732 6.75586C6.53576 6.73688 6.55419 6.71818 6.57263 6.69947L6.03226 6.16619ZM6.57426 5.64566C6.55365 5.66436 6.53304 5.68334 6.51271 5.70205L7.02705 6.26027C7.0463 6.24237 7.06582 6.22475 7.08534 6.20686L6.57426 5.64566ZM7.14363 5.1544C7.12194 5.17202 7.10052 5.18964 7.0791 5.20754L7.56307 5.79233C7.58341 5.77552 7.60374 5.75871 7.62408 5.74217L7.14363 5.1544ZM7.73822 4.69432C7.71572 4.71086 7.69322 4.7274 7.67098 4.74393L8.12296 5.35394C8.14411 5.33821 8.16525 5.32249 8.18667 5.30704L7.73822 4.69432ZM8.35722 4.2665C8.3339 4.28169 8.31058 4.29714 8.28726 4.31232L8.70589 4.94564C8.72785 4.931 8.74981 4.91663 8.77205 4.90226L8.35722 4.2665ZM8.99817 3.87231C8.97404 3.8864 8.94991 3.90023 8.92578 3.91433L9.3097 4.56907C9.33248 4.55578 9.35525 4.5425 9.37802 4.52921L8.99817 3.87231ZM9.66 3.51308C9.63506 3.52582 9.61038 3.53857 9.58544 3.55131L9.93357 4.22584C9.95716 4.21364 9.98048 4.20171 10.0041 4.18978L9.66 3.51308ZM10.3403 3.18991C10.3148 3.2013 10.2893 3.21269 10.2638 3.22407L10.5751 3.9165C10.5992 3.90565 10.6233 3.89481 10.6475 3.88423L10.3403 3.18991ZM11.0373 2.90389C11.0113 2.91392 10.985 2.92368 10.959 2.93398L11.2323 3.64213C11.257 3.63264 11.2816 3.62315 11.3063 3.61394L11.0373 2.90389ZM11.7493 2.65609C11.7228 2.6645 11.6959 2.67317 11.6694 2.68185L11.9039 3.40382C11.9291 3.39569 11.9543 3.38756 11.9795 3.37942L11.7493 2.65609ZM12.4716 2.44761C12.4448 2.45466 12.4177 2.46171 12.3908 2.46875L12.5861 3.20239C12.6115 3.19561 12.637 3.18883 12.6625 3.18232L12.4716 2.44761ZM13.2042 2.27843C13.1768 2.28386 13.1497 2.28955 13.1223 2.29524L13.2774 3.03836C13.3032 3.03294 13.329 3.02779 13.3547 3.02237L13.2042 2.27843ZM13.9447 2.14911C13.917 2.15318 13.8896 2.15725 13.862 2.16158L13.977 2.91202C14.003 2.90796 14.029 2.90416 14.055 2.90037L13.9447 2.14911ZM14.6911 2.05992C14.6635 2.06236 14.6355 2.06507 14.6079 2.06778L14.6824 2.8231C14.7087 2.82039 14.7348 2.81795 14.7611 2.81551L14.6911 2.05992ZM15.4408 2.01057C15.4129 2.01166 15.3852 2.01274 15.3573 2.0141L15.3914 2.7724C15.4177 2.77132 15.444 2.77023 15.4703 2.76915L15.4408 2.01057ZM16.1921 2.00081C16.1642 2.00054 16.1365 2.00027 16.1086 2L16.1026 2.75912C16.1289 2.75939 16.1552 2.75966 16.1815 2.75993L16.1921 2.00081ZM16.9429 2.03091C16.9152 2.02901 16.8873 2.02738 16.8596 2.02548L16.8135 2.78325C16.8398 2.78487 16.8661 2.7865 16.8924 2.7884L16.9429 2.03091ZM17.6912 2.10085C17.6635 2.0976 17.6359 2.09435 17.6082 2.09109L17.5217 2.84533C17.548 2.84831 17.5741 2.85129 17.6001 2.85455L17.6912 2.10085ZM18.4346 2.21093C18.4072 2.20605 18.3799 2.20144 18.3522 2.19683L18.2256 2.94537C18.2516 2.94971 18.2776 2.95432 18.3034 2.95893L18.4346 2.21093ZM19.1713 2.36058C19.1442 2.35434 19.1171 2.34811 19.0899 2.34187L18.9229 3.08228C18.9487 3.08798 18.9742 3.09394 18.9999 3.09991L19.1713 2.36058ZM19.899 2.55009C19.8722 2.54223 19.8456 2.53463 19.8187 2.52704L19.6121 3.25742C19.6374 3.26447 19.6628 3.27179 19.6881 3.27911L19.899 2.55009ZM20.6153 2.77864C20.589 2.76942 20.5627 2.76047 20.5364 2.75125L20.2905 3.46943C20.3155 3.47784 20.3404 3.48651 20.3651 3.49519L20.6153 2.77864ZM21.3181 3.04568C21.2923 3.03511 21.2666 3.02454 21.2408 3.01423L20.9564 3.71804C20.9808 3.7278 21.0052 3.73783 21.0296 3.74787L21.3181 3.04568ZM22.0038 3.34933C21.9789 3.3374 21.9536 3.32547 21.9284 3.31381L21.6066 4.00136C21.6304 4.01247 21.654 4.02359 21.6776 4.03497L22.0038 3.34933ZM22.6727 3.68958C22.6483 3.67629 22.6239 3.66328 22.5995 3.64999L22.241 4.3191C22.2641 4.33157 22.2874 4.34404 22.3104 4.35651L22.6727 3.68958ZM23.3223 4.06534C23.2987 4.0507 23.2749 4.03633 23.2513 4.02196L22.8576 4.671C22.8801 4.68456 22.9026 4.69839 22.9248 4.71221L23.3223 4.06534ZM23.9511 4.47553C23.9283 4.45981 23.9052 4.44408 23.8825 4.42836L23.4546 5.05544C23.4763 5.07035 23.498 5.08526 23.5197 5.10018L23.9511 4.47553ZM24.5573 4.91907C24.5353 4.90199 24.5134 4.88518 24.4912 4.86837L24.0302 5.4716C24.0511 5.4876 24.072 5.50359 24.0929 5.51959L24.5573 4.91907ZM25.1389 5.39433C25.1177 5.37617 25.0966 5.358 25.0754 5.34011L24.5831 5.91785C24.6031 5.93493 24.6232 5.95201 24.643 5.96936L25.1389 5.39433ZM25.6947 5.89996C25.6746 5.88071 25.6546 5.86146 25.6342 5.84221L25.1118 6.39284C25.1308 6.41101 25.15 6.42917 25.169 6.44734L25.6947 5.89996ZM26.2226 6.43487C26.2036 6.41453 26.1844 6.3942 26.1654 6.37414L25.6142 6.89603C25.6323 6.91528 25.6502 6.93426 25.6684 6.9535L26.2226 6.43487ZM26.7215 6.99715C26.7036 6.97574 26.6857 6.95459 26.6675 6.93344L26.0892 7.42524C26.1063 7.4453 26.1234 7.46537 26.1402 7.4857L26.7215 6.99715ZM27.19 7.58547C27.1732 7.56324 27.1564 7.54101 27.1396 7.51877L26.5358 7.97912C26.5518 8 26.5677 8.02115 26.5835 8.04202L27.19 7.58547ZM27.6262 8.19818C27.6108 8.17514 27.5951 8.15182 27.5793 8.12878L26.9519 8.55605C26.9669 8.57774 26.9815 8.5997 26.9964 8.62166L27.6262 8.19818ZM28.0291 8.83367C28.0148 8.80981 28.0004 8.78569 27.986 8.76183L27.3364 9.15494C27.35 9.17744 27.3635 9.20022 27.3771 9.22272L28.0291 8.83367ZM28.3973 9.49031C28.3843 9.46564 28.3713 9.44096 28.358 9.41629L27.6883 9.77389C27.7008 9.79721 27.713 9.82052 27.7255 9.84384L28.3973 9.49031ZM28.73 10.1659C28.7184 10.1404 28.7067 10.1152 28.6948 10.0897L28.0066 10.4105C28.0178 10.4343 28.0289 10.4585 28.04 10.4823L28.73 10.1659ZM29.0256 10.8589C29.0153 10.8329 29.0049 10.8068 28.9944 10.7811L28.29 11.0641C28.2997 11.0885 28.3095 11.1132 28.3193 11.1379L29.0256 10.8589ZM29.2834 11.567C29.2745 11.5405 29.2655 11.5139 29.2566 11.4876L28.5378 11.7321C28.5462 11.7571 28.5549 11.7823 28.563 11.8072L29.2834 11.567ZM29.5019 12.2866C29.4946 12.2597 29.487 12.2329 29.4797 12.206L28.7487 12.4113C28.7558 12.4365 28.7628 12.462 28.7699 12.4875L29.5019 12.2866ZM29.6814 13.0167C29.6755 12.9896 29.6695 12.9622 29.6635 12.9351L28.9225 13.1004C28.9282 13.1262 28.9339 13.152 28.9396 13.1777L29.6814 13.0167ZM29.8211 13.7552C29.8167 13.7278 29.8121 13.7001 29.8075 13.6728L29.0586 13.798C29.063 13.824 29.0673 13.8501 29.0714 13.8761L29.8211 13.7552ZM29.9206 14.5002C29.9176 14.4726 29.9146 14.4449 29.9113 14.4172L29.1571 14.5021C29.16 14.5281 29.1627 14.5544 29.1657 14.5807L29.9206 14.5002ZM29.9802 15.2493C29.9789 15.2214 29.9772 15.1937 29.9756 15.1658L29.2178 15.2102C29.2194 15.2365 29.2208 15.2628 29.2221 15.2891L29.9802 15.2493Z" fill="#8B6E38"/>
<path d="M7.40516 22V21.68L8.72516 21.02V11.78L7.40516 11.12V10.8H12.5452V11.12L11.1452 11.78V21.02L12.5452 21.68V22H7.40516ZM20.988 22.2C19.788 22.2 18.7213 21.96 17.788 21.48C16.868 21 16.1413 20.3467 15.608 19.52C15.088 18.68 14.828 17.7267 14.828 16.66C14.828 15.7667 15.0013 14.9467 15.348 14.2C15.6946 13.4533 16.168 12.8133 16.768 12.28C17.3813 11.7333 18.0746 11.3133 18.848 11.02C19.6213 10.7267 20.428 10.58 21.268 10.58C21.8546 10.58 22.3546 10.62 22.768 10.7C23.1813 10.7667 23.548 10.8667 23.868 11C24.188 11.12 24.508 11.26 24.828 11.42L24.968 14.38H24.628L23.248 12.16C22.9546 11.9467 22.6546 11.8 22.348 11.72C22.0546 11.64 21.7146 11.6 21.328 11.6C20.5546 11.6 19.8613 11.8067 19.248 12.22C18.648 12.6333 18.168 13.2 17.808 13.92C17.4613 14.64 17.288 15.4733 17.288 16.42C17.288 17.9267 17.6546 19.1 18.388 19.94C19.1346 20.7667 20.1146 21.18 21.328 21.18C21.7013 21.18 22.0413 21.1533 22.348 21.1C22.668 21.0333 22.968 20.9267 23.248 20.78L24.808 18.56H25.128L24.928 21.32C24.4613 21.5867 23.9013 21.8 23.248 21.96C22.5946 22.12 21.8413 22.2 20.988 22.2Z" fill="url(#paint0_linear_56_128)"/>
</g>
<defs>
<linearGradient id="paint0_linear_56_128" x1="16.5" y1="11" x2="16.5" y2="22" gradientUnits="userSpaceOnUse">
<stop stop-color="#C3A758"/>
<stop offset="1" stop-color="#8B6E38"/>
</linearGradient>
<clipPath id="clip0_56_128">
<rect width="32" height="32" fill="white"/>
</clipPath>
</defs>
</svg>
